<?xml version="1.0" standalone="no"?>
<!DOCTYPE svg PUBLIC "-//W3C//DTD SVG 20010904//EN"
 "http://www.w3.org/TR/2001/REC-SVG-20010904/DTD/svg10.dtd">
<svg version="1.0" xmlns="http://www.w3.org/2000/svg"
 width="960.000000pt" height="956.000000pt" viewBox="0 0 960.000000 956.000000"
 preserveAspectRatio="xMidYMid meet">

<g transform="translate(0.000000,956.000000) scale(0.100000,-0.100000)"
fill="#000000" stroke="none">
<path d="M0 9550 c0 -7 1607 -10 4800 -10 3193 0 4800 3 4800 10 0 7 -1607 10
-4800 10 -3193 0 -4800 -3 -4800 -10z"/>
<path d="M4340 7929 c-41 -5 -127 -13 -190 -19 -146 -13 -208 -22 -350 -55
-157 -37 -259 -64 -295 -81 -16 -7 -47 -16 -68 -20 -20 -3 -54 -15 -74 -25
-21 -11 -46 -19 -58 -19 -23 0 -100 -24 -162 -52 -24 -10 -45 -18 -48 -18 -2
0 -33 -13 -67 -30 -34 -16 -67 -30 -73 -30 -7 0 -32 -15 -56 -33 -24 -19 -56
-37 -71 -41 -16 -3 -28 -11 -28 -16 0 -5 -15 -17 -32 -25 -18 -8 -46 -24 -63
-35 -16 -11 -46 -28 -65 -39 -19 -10 -44 -29 -55 -41 -11 -12 -27 -25 -37 -29
-16 -6 -74 -52 -130 -103 -16 -16 -32 -28 -36 -28 -3 0 -24 -18 -46 -40 -107
-105 -173 -173 -196 -201 -14 -16 -37 -43 -52 -58 -14 -16 -37 -46 -51 -68
-14 -22 -31 -46 -39 -54 -34 -35 -88 -107 -88 -117 0 -6 -8 -17 -18 -24 -23
-17 -122 -185 -122 -207 0 -10 -9 -29 -19 -43 -11 -14 -25 -47 -32 -74 -6 -27
-20 -67 -30 -88 -11 -22 -19 -46 -19 -53 0 -8 -9 -32 -20 -53 -11 -22 -23 -61
-27 -87 -3 -27 -10 -53 -14 -59 -25 -32 -68 -297 -74 -454 -5 -124 -9 -137
-53 -143 -71 -11 -107 -18 -127 -27 -11 -5 -46 -16 -77 -25 -122 -33 -213
-132 -233 -250 -3 -22 -12 -58 -19 -80 -8 -22 -18 -58 -24 -80 -6 -22 -27 -94
-47 -160 -19 -66 -44 -149 -55 -185 -21 -71 -22 -170 -2 -207 27 -49 106 -84
196 -86 39 -1 60 4 74 16 10 9 23 17 29 17 11 0 73 72 73 84 0 16 58 97 62 86
2 -7 4 2 4 21 0 19 10 66 22 104 11 39 24 93 27 120 4 28 14 86 22 130 8 44
19 98 23 120 15 81 28 99 78 110 31 6 32 5 34 -27 0 -18 2 -37 3 -43 1 -5 7
-50 14 -100 7 -49 16 -106 21 -125 5 -19 13 -62 18 -95 5 -33 18 -87 27 -120
10 -33 18 -74 19 -92 0 -17 4 -29 9 -26 4 2 10 -4 13 -14 3 -10 11 -31 19 -48
20 -46 34 -94 31 -108 -1 -7 -1 -9 1 -4 9 15 23 6 23 -15 0 -13 8 -36 18 -53
22 -36 35 -82 24 -88 -4 -2 -1 -2 6 0 9 2 11 -4 7 -20 -5 -16 -4 -18 3 -8 8
11 13 7 26 -17 9 -17 16 -38 16 -47 0 -8 5 -15 10 -15 6 0 16 -12 22 -27 7
-16 25 -44 40 -64 15 -20 28 -41 28 -46 0 -5 25 -35 55 -66 32 -33 53 -62 49
-69 -4 -7 -3 -8 4 -4 10 6 92 -63 92 -78 0 -4 13 -21 30 -39 16 -18 30 -35 30
-39 0 -4 27 -38 60 -76 33 -39 60 -75 60 -82 0 -7 8 -9 21 -5 18 6 20 4 14
-14 -4 -14 0 -25 17 -38 12 -10 36 -32 53 -50 16 -17 43 -36 58 -42 15 -6 27
-17 27 -25 0 -9 13 -22 30 -31 16 -9 30 -19 30 -24 0 -4 18 -13 41 -20 22 -7
43 -19 46 -27 5 -13 7 -13 14 -2 7 11 11 10 18 -1 5 -8 17 -16 27 -17 9 -2 20
-7 23 -12 3 -5 21 -14 40 -20 19 -7 48 -23 65 -35 17 -13 45 -30 61 -39 17 -8
76 -41 132 -71 56 -31 132 -69 170 -83 37 -15 75 -33 84 -41 8 -7 24 -13 33
-13 13 0 16 -5 11 -17 -9 -22 -22 -69 -31 -108 -15 -70 -26 -328 -15 -352 6
-13 11 -32 11 -42 0 -11 14 -33 30 -51 17 -18 30 -36 30 -40 0 -4 10 -14 21
-22 20 -13 21 -17 10 -63 -7 -28 -15 -61 -18 -75 -3 -14 -11 -32 -18 -40 -7
-8 -20 -39 -30 -68 -15 -48 -16 -77 -3 -135 6 -25 49 -60 116 -93 31 -16 59
-31 62 -34 3 -3 41 -16 85 -30 44 -13 85 -27 90 -31 6 -4 64 -26 130 -49 66
-22 124 -45 129 -50 6 -6 22 -10 36 -10 15 0 30 -3 33 -7 9 -8 167 -51 232
-62 28 -5 75 -17 105 -26 30 -9 71 -19 90 -22 19 -2 45 -9 57 -15 37 -18 111
-4 144 28 16 15 29 32 29 37 0 5 11 22 24 38 13 15 26 34 28 40 3 8 12 7 33
-4 48 -24 158 -32 186 -14 31 20 46 9 88 -65 44 -78 96 -134 191 -207 87 -67
123 -83 215 -102 120 -23 355 -9 410 25 11 7 32 16 46 19 14 4 51 29 83 57 31
27 67 55 79 62 26 13 63 46 129 111 99 100 224 386 273 622 26 126 45 208 54
230 16 38 41 180 41 227 -1 25 3 49 8 52 8 4 22 106 23 161 1 18 22 36 78 66
31 16 78 43 105 60 39 24 51 27 58 17 8 -10 9 -9 5 4 -3 9 1 19 8 22 10 3 18
-6 24 -32 8 -29 6 -64 -9 -151 -30 -173 -23 -349 16 -382 8 -6 14 -20 14 -30
0 -10 6 -22 13 -26 8 -4 17 -16 20 -26 4 -11 16 -21 27 -24 11 -3 20 -11 20
-19 0 -7 12 -16 28 -19 15 -3 44 -11 65 -17 28 -9 41 -8 49 0 7 7 29 12 49 12
24 0 39 5 43 15 3 8 21 23 41 32 42 20 100 95 145 189 18 38 36 76 40 85 4 8
15 49 25 90 9 40 22 90 28 109 6 19 12 64 13 100 2 36 6 85 10 110 3 25 6 61
5 80 -1 60 -22 250 -31 280 -8 26 -4 32 32 62 59 48 145 136 189 193 21 28 48
61 59 75 33 39 80 114 80 127 0 6 14 23 30 36 17 14 30 31 30 37 0 7 12 26 27
44 l26 31 -6 -54 c-3 -29 -12 -59 -18 -67 -8 -9 -12 -65 -13 -162 l-1 -147 45
-58 c35 -45 61 -66 114 -93 61 -31 74 -34 120 -28 70 10 143 45 191 91 41 40
95 121 95 143 0 6 11 39 24 73 33 87 48 199 47 344 -1 117 -5 146 -33 283 -29
146 -64 239 -99 264 -29 20 -29 74 -2 196 30 136 33 515 4 610 -6 19 -11 51
-11 71 0 20 -7 53 -15 73 -8 19 -14 39 -13 43 4 16 -24 131 -49 198 -14 39
-36 99 -48 135 -27 76 -52 138 -65 162 -13 23 3 32 56 30 79 -3 224 77 224
124 0 8 7 26 16 39 22 34 11 158 -17 186 -11 11 -19 27 -19 37 0 9 -7 25 -14
34 -19 25 -84 68 -103 68 -9 0 -24 7 -33 15 -18 17 -116 45 -156 45 -13 0 -32
4 -42 10 -9 5 -37 16 -62 24 -193 64 -286 111 -336 171 -70 83 -372 379 -424
415 -28 19 -63 46 -78 59 -15 12 -58 42 -97 64 -38 23 -71 45 -73 49 -2 5 -13
8 -25 8 -12 0 -39 16 -60 35 -21 19 -44 35 -51 35 -8 0 -19 7 -26 15 -7 8 -23
15 -36 15 -13 0 -27 7 -31 15 -5 8 -40 28 -78 46 -39 17 -77 37 -85 44 -14 12
-70 41 -155 80 -22 11 -47 25 -56 32 -18 15 -270 106 -425 154 -17 5 -40 9
-52 9 -12 0 -45 8 -74 19 -131 46 -289 80 -423 92 -55 4 -138 13 -185 18 -47
6 -121 13 -165 16 -44 3 -107 8 -140 10 -109 10 -559 12 -635 4z m645 -184
c139 -14 304 -29 435 -40 30 -2 89 -12 130 -21 41 -9 96 -20 122 -24 25 -5 60
-15 76 -24 35 -18 226 -74 268 -79 30 -4 36 -6 124 -43 30 -13 74 -28 98 -34
23 -6 42 -15 42 -20 0 -6 9 -10 20 -10 17 0 127 -54 335 -167 44 -24 94 -50
112 -58 18 -8 37 -23 42 -32 6 -10 11 -15 11 -11 0 7 93 -38 134 -65 90 -58
122 -77 129 -77 4 0 18 -9 30 -21 12 -12 37 -33 56 -48 54 -41 221 -205 221
-216 0 -6 14 -19 30 -28 17 -10 30 -22 30 -27 0 -6 31 -41 69 -78 75 -75 151
-165 171 -203 7 -13 25 -40 41 -59 24 -31 127 -195 170 -270 8 -14 19 -32 26
-40 6 -8 23 -45 38 -82 15 -38 31 -68 37 -68 5 0 6 -9 3 -20 -3 -11 -3 -20 2
-20 5 0 14 -14 20 -31 11 -27 10 -29 -4 -17 -14 11 -15 10 -8 -12 4 -14 11
-29 16 -34 12 -13 11 -29 -1 -21 -6 4 -10 -7 -9 -27 0 -30 1 -31 9 -10 15 36
17 26 9 -40 -5 -35 -13 -156 -18 -269 -5 -126 -13 -215 -21 -229 -7 -12 -10
-38 -7 -56 4 -24 2 -34 -8 -34 -7 0 -16 -17 -20 -37 -4 -21 -10 -40 -14 -43
-4 -3 -20 -32 -36 -65 -16 -33 -41 -71 -55 -85 -15 -14 -37 -53 -50 -87 -12
-35 -26 -60 -31 -57 -5 3 -16 -11 -24 -30 -9 -20 -24 -42 -35 -48 -11 -7 -20
-19 -20 -26 0 -19 -44 -82 -85 -122 -19 -19 -35 -40 -35 -47 0 -7 -14 -25 -31
-40 -18 -16 -37 -34 -43 -41 -6 -7 -19 -22 -28 -32 -9 -10 -24 -33 -33 -49 -8
-17 -27 -38 -40 -47 -14 -9 -25 -24 -25 -33 0 -9 -18 -27 -40 -41 -22 -14 -40
-31 -40 -38 0 -15 -53 -72 -67 -72 -4 0 -13 -10 -18 -22 -6 -11 -25 -29 -43
-39 -18 -9 -33 -20 -33 -23 1 -3 1 -10 1 -14 0 -4 -25 -21 -55 -37 -30 -15
-55 -34 -55 -41 0 -16 -40 -45 -52 -38 -5 3 -16 -2 -23 -12 -12 -16 -16 -17
-24 -5 -8 12 -12 12 -25 -2 -9 -8 -16 -24 -17 -34 0 -10 -3 -13 -6 -6 -2 7 4
34 14 60 10 27 18 50 19 53 0 3 3 12 6 20 34 92 65 269 74 410 4 81 12 133 21
147 18 27 14 119 -12 320 -18 136 -18 143 -2 156 10 7 20 30 23 52 2 22 7 48
10 58 3 10 1 23 -4 30 -5 7 -12 26 -16 42 -12 51 -87 239 -102 256 -8 9 -18
33 -21 53 -6 41 -41 74 -85 83 -36 7 -35 26 7 177 9 33 21 89 25 125 5 36 16
95 25 131 9 36 20 94 24 130 6 44 20 87 43 130 71 135 114 303 112 434 -1 42
-6 54 -33 78 -31 28 -66 31 -97 7 -16 -13 -37 -89 -36 -134 l1 -40 -19 39
c-11 22 -20 50 -20 62 0 13 -4 26 -10 29 -5 3 -10 14 -10 24 0 21 -69 159 -99
198 -40 50 -119 127 -193 188 -38 31 -203 119 -253 135 -22 7 -44 16 -50 20
-17 11 -132 42 -175 46 -126 11 -301 -1 -430 -31 -55 -12 -96 -15 -155 -11
-117 10 -118 10 -146 38 -18 18 -63 38 -140 61 -136 43 -212 56 -339 61 -75 2
-106 8 -145 27 -41 19 -66 24 -139 24 -63 0 -91 -4 -93 -12 -3 -7 -13 -13 -24
-13 -11 0 -38 -17 -62 -37 -69 -62 -78 -65 -134 -43 -27 10 -77 22 -111 26
l-62 7 41 44 c22 24 46 58 54 76 11 27 11 34 -4 54 -25 34 -56 28 -109 -21
-26 -24 -61 -51 -79 -60 -41 -20 -73 -55 -73 -77 0 -17 -4 -18 -105 -38 -27
-5 -63 -15 -80 -22 -46 -20 -125 -79 -125 -94 0 -7 -6 -15 -14 -18 -22 -9 -29
-72 -11 -106 46 -89 142 -191 180 -191 7 0 18 -6 24 -14 7 -8 63 -36 126 -62
l113 -49 -5 -48 c-6 -52 9 -141 35 -197 8 -19 17 -41 18 -49 1 -7 12 -23 23
-35 12 -12 21 -28 21 -34 0 -6 17 -22 38 -36 20 -13 43 -30 50 -39 22 -26 100
-33 138 -12 30 16 36 16 66 2 42 -20 184 -53 263 -62 33 -3 82 -13 109 -21 58
-17 114 -18 152 -4 21 9 31 7 47 -7 28 -26 107 -130 107 -142 0 -18 83 -176
122 -231 45 -64 78 -111 111 -160 30 -43 198 -200 214 -200 3 0 22 -13 42 -29
20 -15 56 -39 81 -51 50 -26 233 -90 256 -90 8 0 14 -4 14 -8 0 -5 -29 -14
-65 -21 -71 -14 -83 -24 -95 -75 -8 -38 1 -54 39 -61 12 -2 26 -7 31 -10 11
-7 107 13 125 26 8 6 94 52 197 106 38 20 156 29 316 25 94 -2 81 11 126 -127
14 -44 26 -87 26 -96 0 -9 13 -42 29 -75 16 -32 36 -81 45 -109 26 -78 45 -97
99 -99 l46 -1 10 -47 c17 -76 23 -305 11 -423 -6 -60 -12 -123 -13 -140 -4
-45 -29 -149 -39 -160 -4 -5 -8 -17 -8 -26 0 -10 -7 -30 -15 -46 -8 -15 -20
-49 -27 -75 -7 -27 -16 -48 -20 -48 -4 0 -8 -15 -8 -33 0 -17 -11 -53 -25 -79
-14 -26 -25 -59 -25 -73 0 -14 -7 -42 -16 -63 -13 -29 -17 -33 -23 -20 -8 23
-25 11 -39 -27 -6 -17 -11 -23 -11 -12 -1 22 -16 22 -39 -1 -20 -20 -74 -47
-114 -57 -14 -4 -34 -14 -45 -24 -10 -9 -32 -23 -49 -30 -18 -7 -41 -23 -51
-35 -20 -23 -51 -32 -230 -68 -35 -6 -63 -16 -63 -20 0 -4 -19 -8 -42 -8 -24
0 -65 -7 -92 -15 -30 -9 -90 -15 -157 -15 -62 0 -109 -4 -111 -10 -1 -5 -46
-13 -98 -16 -52 -4 -100 -10 -106 -15 -16 -13 -686 -14 -710 -1 -11 6 -47 13
-80 16 -149 14 -276 34 -286 44 -7 7 -30 12 -52 12 -40 0 -147 29 -186 50 -10
5 -35 12 -54 16 -27 4 -36 2 -36 -9 0 -10 -8 -13 -27 -9 l-28 6 25 6 c24 6 24
6 -9 18 -19 7 -35 12 -37 12 -1 0 -7 -12 -13 -27 -6 -16 -19 -41 -29 -58 -17
-27 -35 -116 -48 -230 -3 -22 -9 -49 -14 -60 -9 -19 -20 -76 -41 -215 -10 -71
-24 -117 -45 -158 -8 -15 -14 -35 -14 -44 0 -9 -4 -20 -10 -23 -5 -3 -10 -14
-10 -24 0 -20 -43 -57 -97 -85 -18 -9 -33 -21 -33 -25 0 -5 -10 -31 -22 -58
l-22 -48 -7 70 c-7 73 2 191 20 260 5 22 18 78 27 125 10 47 21 87 25 90 3 3
9 28 12 55 3 28 11 82 17 120 21 138 20 132 35 328 7 88 6 99 -11 118 -32 36
-54 43 -69 23 -12 -17 -14 -17 -29 -1 -21 21 -21 21 -42 0 -13 -13 -16 -14
-12 -3 6 19 -15 40 -40 40 -11 0 -48 14 -83 31 -35 18 -82 40 -104 49 -100 43
-144 66 -192 102 -29 21 -59 38 -67 38 -8 0 -27 11 -42 25 -15 14 -35 25 -46
25 -10 0 -24 11 -30 25 -11 24 -104 85 -130 85 -6 0 -21 9 -33 20 -11 11 -39
26 -60 34 -27 9 -39 19 -37 30 3 15 -8 20 -34 17 -19 -2 -104 38 -104 49 0 5
-11 10 -25 10 -15 0 -25 6 -25 14 0 7 -9 16 -20 19 -11 3 -20 12 -20 20 0 8
-27 42 -60 75 -33 32 -60 64 -60 71 0 6 -6 11 -14 11 -7 0 -22 16 -32 36 -11
20 -23 44 -29 55 -5 10 -17 19 -25 19 -15 0 -60 73 -60 98 0 12 -7 22 -37 56
-6 7 -15 30 -18 50 -5 25 -12 36 -25 36 -13 0 -20 11 -25 40 -4 22 -11 40 -16
40 -5 0 -9 16 -9 34 0 23 -8 44 -24 61 -15 16 -30 51 -37 83 -7 32 -21 72 -31
90 -10 18 -18 40 -18 48 0 11 -6 14 -22 8 l-23 -6 22 19 c17 15 19 23 11 31
-9 9 -9 12 3 12 12 0 12 2 -1 10 -13 9 -13 10 0 11 8 1 18 1 23 0 4 0 7 5 7
13 0 8 9 35 20 60 25 59 18 98 -28 142 -26 25 -44 34 -69 34 -29 0 -33 3 -34
28 -2 23 -2 24 -6 5 -2 -13 -11 -23 -19 -23 -13 0 -14 21 -10 143 6 148 25
257 71 412 15 50 31 107 37 129 5 21 17 57 27 80 10 22 31 72 45 109 48 121
111 216 319 481 100 128 128 158 212 231 38 33 79 69 90 80 42 42 162 132 217
164 32 18 60 36 63 42 4 5 34 22 68 39 34 16 75 41 91 55 16 14 35 25 42 25 7
0 41 13 76 29 114 52 182 79 228 91 56 14 109 30 135 41 11 5 45 16 75 25 30
9 69 22 85 29 17 7 84 25 150 40 66 14 129 28 140 31 34 7 139 25 170 28 176
19 209 22 360 31 55 4 101 8 102 9 7 6 348 -7 468 -19z m86 -499 c23 -8 48
-12 55 -9 8 3 14 0 14 -6 0 -6 15 -14 33 -19 25 -6 32 -14 32 -33 0 -20 -5
-24 -25 -22 -14 1 -64 5 -112 8 l-86 6 -39 -42 c-51 -55 -125 -93 -167 -84
-42 8 -86 71 -86 124 0 31 7 46 31 71 l31 31 139 -5 c80 -4 156 -12 180 -20z
m943 -86 c91 -13 133 -28 255 -90 128 -66 261 -172 301 -242 49 -85 80 -150
80 -166 0 -10 3 -22 7 -26 9 -9 33 -93 38 -131 2 -16 6 -52 10 -80 10 -75 8
-257 -2 -264 -5 -3 -18 -22 -29 -41 -10 -19 -21 -37 -24 -40 -3 -3 -18 -25
-34 -50 -16 -25 -47 -67 -70 -95 -23 -27 -50 -61 -61 -75 -11 -13 -45 -52 -76
-85 -31 -33 -71 -77 -89 -97 -18 -21 -37 -38 -42 -38 -7 0 -69 -54 -146 -128
-13 -12 -33 -23 -45 -23 -36 -1 -148 19 -207 36 -30 9 -69 20 -85 24 -61 16
-221 109 -273 159 -12 12 -27 22 -31 22 -18 0 -134 127 -191 209 -14 19 -32
44 -42 54 -9 10 -33 53 -54 95 -44 88 -80 148 -106 177 -60 67 -107 148 -108
186 0 36 -51 107 -88 124 -20 9 -48 22 -62 29 -14 8 -50 21 -81 30 -55 15 -56
16 -74 73 -11 32 -29 72 -42 90 -22 30 -22 32 -4 38 33 10 71 45 71 65 0 28
13 31 68 19 82 -17 192 25 246 94 25 31 25 31 71 19 70 -19 139 -16 159 7 10
11 28 22 41 25 16 4 26 16 30 35 6 28 8 29 43 23 71 -13 217 -7 262 11 16 7
236 34 285 36 17 0 61 -4 99 -9z m-1513 -413 c24 -16 38 -36 48 -67 7 -25 18
-52 22 -60 5 -8 13 -24 18 -35 10 -24 35 -47 47 -43 5 1 18 -3 29 -9 11 -6 56
-23 100 -38 44 -15 86 -32 93 -37 10 -9 19 -78 9 -78 -1 0 -34 7 -72 15 -39 9
-99 21 -135 26 -108 17 -243 50 -282 70 -27 14 -45 34 -64 72 -25 48 -26 55
-15 97 12 47 35 71 86 95 43 20 77 18 116 -8z m3614 -427 c168 -47 205 -72
205 -138 l0 -38 -58 -12 c-110 -23 -182 -9 -182 35 0 12 -6 26 -13 30 -7 4
-31 40 -53 78 -50 90 -50 88 -28 81 11 -3 69 -19 129 -36z m-1462 -597 c-8
-43 -15 -117 -16 -164 l-2 -86 -28 2 c-16 1 -32 6 -36 12 -3 5 -41 8 -83 8
-89 -2 -95 6 -45 52 17 16 46 45 62 64 116 133 145 168 145 178 0 6 4 11 8 11
5 0 2 -35 -5 -77z m1407 -13 c0 -5 -4 -10 -10 -10 -5 0 -10 5 -10 10 0 6 5 10
10 10 6 0 10 -4 10 -10z m-1268 -440 c22 -52 48 -121 58 -153 l20 -59 -29 -28
c-21 -22 -31 -26 -40 -17 -6 6 -11 15 -11 20 0 12 -93 200 -107 214 -6 7 -9
21 -6 32 3 10 0 22 -6 25 -20 13 -11 42 17 53 54 22 63 15 104 -87z m1385 -2
c-3 -8 -6 -5 -6 6 -1 11 2 17 5 13 3 -3 4 -12 1 -19z m-6400 -144 c-3 -3 -12
-4 -19 -1 -8 3 -5 6 6 6 11 1 17 -2 13 -5z m50 -356 c-3 -7 -5 -2 -5 12 0 14
2 19 5 13 2 -7 2 -19 0 -25z m-50 0 c-3 -8 -6 -5 -6 6 -1 11 2 17 5 13 3 -3 4
-12 1 -19z m6398 -147 c-6 -5 -25 10 -25 20 0 5 6 4 14 -3 8 -7 12 -15 11 -17z
m-1326 -915 c-9 -8 -10 -7 -5 7 3 10 7 24 7 30 1 7 3 4 6 -7 3 -10 -1 -23 -8
-30z m-246 -147 c-8 -8 -13 -7 -18 2 -5 8 -4 10 3 5 7 -4 12 -2 12 5 0 7 3 9
7 6 4 -4 2 -12 -4 -18z m110 -244 c-3 -9 -8 -14 -10 -11 -3 3 -2 9 2 15 9 16
15 13 8 -4z m-3853 -45 c8 -5 11 -10 5 -10 -5 0 -17 5 -25 10 -8 5 -10 10 -5
10 6 0 17 -5 25 -10z m587 -32 c-3 -8 -6 -5 -6 6 -1 11 2 17 5 13 3 -3 4 -12
1 -19z m3240 -10 c-3 -8 -6 -5 -6 6 -1 11 2 17 5 13 3 -3 4 -12 1 -19z m-230
-180 c-3 -8 -6 -5 -6 6 -1 11 2 17 5 13 3 -3 4 -12 1 -19z m536 -29 c7 -27 -6
-24 -19 5 -9 19 -9 23 1 19 7 -2 15 -13 18 -24z m224 -31 c-3 -7 -5 -2 -5 12
0 14 2 19 5 13 2 -7 2 -19 0 -25z m-780 -20 c-3 -7 -5 -2 -5 12 0 14 2 19 5
13 2 -7 2 -19 0 -25z m575 5 c-3 -16 -7 -22 -10 -15 -4 13 4 42 11 42 2 0 2
-12 -1 -27z m-367 7 c3 -5 1 -10 -4 -10 -6 0 -11 5 -11 10 0 6 2 10 4 10 3 0
8 -4 11 -10z m395 -95 c0 -5 -5 -3 -10 5 -5 8 -10 20 -10 25 0 6 5 3 10 -5 5
-8 10 -19 10 -25z m-3144 -224 c5 -5 41 -14 79 -20 39 -6 95 -18 125 -26 30
-9 62 -18 70 -20 84 -25 247 -63 395 -94 99 -21 209 -44 245 -51 44 -10 150
-15 321 -16 141 -1 261 -4 266 -7 6 -4 25 -2 42 3 42 12 220 4 237 -11 12 -10
13 -9 8 5 -5 14 2 16 47 16 30 0 83 5 119 11 36 6 78 11 94 10 15 0 35 6 43
14 8 8 27 15 42 15 27 0 55 9 216 67 44 17 93 33 109 37 l29 7 -7 -53 c-3 -29
-11 -75 -16 -103 -6 -27 -12 -61 -15 -75 -19 -104 -37 -186 -55 -250 -12 -41
-22 -82 -24 -90 -1 -8 -5 -22 -8 -30 -6 -15 -22 -74 -39 -145 -10 -45 -39
-115 -77 -190 -14 -27 -36 -72 -50 -100 -25 -50 -88 -124 -107 -125 -5 0 -24
-12 -40 -28 -99 -89 -180 -135 -245 -138 -284 -13 -304 -8 -455 111 -11 9 -25
19 -30 23 -6 4 -31 39 -55 77 -25 39 -61 88 -82 110 -36 40 -36 41 -26 92 10
49 9 55 -15 86 -20 26 -37 36 -80 46 -58 13 -87 33 -67 46 13 8 31 49 35 80 2
11 7 29 11 39 5 14 4 17 -4 12 -7 -4 -12 -1 -12 9 0 20 -98 115 -118 115 -8 0
-12 6 -9 13 3 7 -5 13 -19 13 -14 1 -31 8 -40 14 -18 16 -161 80 -192 87 -13
3 -26 12 -29 19 -3 8 -12 14 -20 14 -20 0 -109 28 -163 51 -25 10 -65 26 -90
35 -25 9 -64 23 -87 31 -24 9 -43 19 -43 23 0 4 -25 13 -56 20 -30 8 -61 21
-67 30 -7 9 -19 17 -27 17 -8 0 -38 5 -67 12 -58 14 -57 7 -31 124 10 48 16
55 34 38z m1057 -38 c-7 -2 -19 -2 -25 0 -7 3 -2 5 12 5 14 0 19 -2 13 -5z
m594 1 c-3 -3 -12 -4 -19 -1 -8 3 -5 6 6 6 11 1 17 -2 13 -5z m1470 -206 c-3
-8 -6 -5 -6 6 -1 11 2 17 5 13 3 -3 4 -12 1 -19z m17 -54 c3 -8 2 -12 -4 -9
-6 3 -10 10 -10 16 0 14 7 11 14 -7z m53 -40 c-3 -3 -12 -4 -19 -1 -8 3 -5 6
6 6 11 1 17 -2 13 -5z m-3332 -34 c-3 -5 -13 -10 -21 -10 -8 0 -12 5 -9 10 3
6 13 10 21 10 8 0 12 -4 9 -10z m355 -140 c6 -11 7 -21 3 -22 -4 0 -12 -2 -18
-3 -5 -2 -22 -3 -36 -4 -14 0 -36 -10 -49 -21 -20 -17 -21 -20 -6 -26 18 -7
64 -1 128 15 21 5 36 5 33 1 -3 -4 9 -10 26 -14 112 -22 153 -143 80 -235 -43
-54 -100 -76 -165 -61 -68 15 -122 45 -142 79 -10 17 -20 28 -24 26 -3 -2 -6
4 -7 13 -1 9 -5 36 -9 60 -6 38 -5 42 13 42 16 0 22 -9 27 -37 7 -44 28 -72
81 -107 121 -83 283 44 184 143 -17 17 -34 31 -37 32 -4 0 -15 2 -25 4 -15 3
-13 -1 7 -20 13 -12 29 -40 35 -61 9 -32 8 -41 -7 -58 -42 -50 -74 -58 -122
-30 -38 23 -60 64 -60 114 l0 43 -46 -6 c-41 -4 -46 -2 -55 20 -10 27 5 66 38
95 45 41 135 52 153 18z m784 -475 c-9 -55 -11 -58 -53 -50 -50 9 -56 18 -41
57 21 53 26 56 65 44 35 -11 36 -12 29 -51z"/>
<path d="M3811 7622 c-79 -46 -90 -61 -71 -98 26 -48 53 -52 123 -15 71 38 97
63 97 97 0 26 -34 54 -65 53 -11 0 -49 -17 -84 -37z"/>
<path d="M2894 6864 c-52 -54 -84 -111 -84 -151 0 -33 8 -46 36 -61 26 -14 81
9 92 37 3 9 12 22 19 29 7 7 13 20 13 28 0 8 5 14 11 14 5 0 16 15 24 34 18
43 5 88 -31 105 -34 15 -29 17 -80 -35z"/>
<path d="M3100 6723 c-20 -53 -37 -73 -114 -139 -21 -19 -17 -77 8 -102 12
-13 18 -12 48 3 18 10 42 22 53 28 27 14 78 83 98 134 21 55 13 107 -20 122
-41 19 -50 13 -73 -46z"/>
<path d="M1721 5594 c0 -11 3 -14 6 -6 3 7 2 16 -1 19 -3 4 -6 -2 -5 -13z"/>
<path d="M1722 5490 c0 -14 2 -19 5 -12 2 6 2 18 0 25 -3 6 -5 1 -5 -13z"/>
<path d="M6915 3850 c-3 -5 -1 -10 4 -10 6 0 11 5 11 10 0 6 -2 10 -4 10 -3 0
-8 -4 -11 -10z"/>
<path d="M6562 3600 c0 -14 2 -19 5 -12 2 6 2 18 0 25 -3 6 -5 1 -5 -13z"/>
<path d="M5860 7019 c-87 -14 -233 -95 -309 -170 -85 -84 -241 -298 -241 -331
0 -8 -6 -21 -14 -27 -8 -7 -17 -28 -21 -49 -4 -20 -10 -41 -15 -47 -22 -29
-42 -121 -38 -181 3 -54 8 -69 31 -89 14 -14 31 -25 37 -25 5 0 10 -5 10 -11
0 -16 128 -4 149 14 9 8 28 17 42 20 36 9 101 76 139 144 18 33 52 86 60 93 3
3 21 26 40 53 19 26 52 66 72 90 21 23 38 46 38 51 0 21 152 194 195 222 15
10 25 26 25 40 0 13 4 24 9 24 15 0 19 50 8 87 -12 40 -57 78 -102 86 -16 3
-37 8 -45 10 -8 3 -40 1 -70 -4z m50 -146 c0 -5 -27 -37 -60 -71 -33 -35 -60
-70 -60 -77 0 -7 -6 -15 -12 -18 -7 -2 -40 -45 -73 -93 -32 -49 -69 -100 -81
-114 -31 -35 -88 -116 -124 -177 -32 -55 -82 -93 -120 -93 -22 0 -22 3 -17 51
4 28 11 57 18 65 6 7 8 18 5 23 -4 5 -2 12 4 16 5 3 22 32 36 63 14 31 34 62
45 70 11 7 28 30 39 50 10 20 31 51 45 67 15 17 37 41 49 55 27 32 141 130
151 130 4 0 19 9 34 19 38 28 121 50 121 34z"/>
<path d="M6384 6776 c-25 -11 -40 -31 -72 -98 -105 -219 -128 -263 -183 -335
-93 -123 -230 -257 -375 -363 -40 -30 -53 -46 -57 -72 -2 -18 -1 -34 4 -36 5
-2 9 -9 9 -17 0 -7 14 -15 30 -19 23 -4 40 1 68 19 20 13 55 28 77 33 24 5 56
24 80 47 22 21 55 52 73 69 19 17 38 39 43 49 5 9 15 17 22 17 7 0 28 25 46
55 18 30 41 57 51 60 10 3 31 22 46 43 15 20 32 42 39 47 7 6 21 28 32 50 11
22 39 76 62 120 22 44 41 83 41 87 0 4 16 40 35 81 41 87 44 123 11 155 -27
25 -39 26 -82 8z"/>
<path d="M3881 2634 c0 -11 3 -14 6 -6 3 7 2 16 -1 19 -3 4 -6 -2 -5 -13z"/>
<path d="M3900 2620 c0 -5 5 -10 11 -10 5 0 7 5 4 10 -3 6 -8 10 -11 10 -2 0
-4 -4 -4 -10z"/>
<path d="M3864 2596 c-3 -8 -4 -25 -2 -38 3 -17 5 -13 9 15 5 38 2 47 -7 23z"/>
<path d="M3901 2534 c0 -11 3 -14 6 -6 3 7 2 16 -1 19 -3 4 -6 -2 -5 -13z"/>
<path d="M6200 2530 c-18 -12 -2 -12 25 0 13 6 15 9 5 9 -8 0 -22 -4 -30 -9z"/>
<path d="M4008 2493 c7 -3 16 -2 19 1 4 3 -2 6 -13 5 -11 0 -14 -3 -6 -6z"/>
<path d="M4978 2413 c12 -2 32 -2 45 0 12 2 2 4 -23 4 -25 0 -35 -2 -22 -4z"/>
<path d="M5288 2413 c6 -2 18 -2 25 0 6 3 1 5 -13 5 -14 0 -19 -2 -12 -5z"/>
<path d="M5208 2383 c7 -3 16 -2 19 1 4 3 -2 6 -13 5 -11 0 -14 -3 -6 -6z"/>
<path d="M4070 1971 c0 -37 21 -59 52 -55 12 1 27 3 31 3 5 1 7 11 5 23 -2 14
-16 29 -38 40 -47 23 -50 22 -50 -11z"/>
<path d="M1531 4954 c0 -11 3 -14 6 -6 3 7 2 16 -1 19 -3 4 -6 -2 -5 -13z"/>
<path d="M1402 4690 c0 -14 2 -19 5 -12 2 6 2 18 0 25 -3 6 -5 1 -5 -13z"/>
<path d="M1571 4694 c0 -11 3 -14 6 -6 3 7 2 16 -1 19 -3 4 -6 -2 -5 -13z"/>
<path d="M1411 4634 c0 -11 3 -14 6 -6 3 7 2 16 -1 19 -3 4 -6 -2 -5 -13z"/>
</g>
</svg>
